<?xml version="1.0" encoding="UTF-8" standalone="no"?>
<svg xmlns:ffdec="https://www.free-decompiler.com/flash" xmlns:xlink="http://www.w3.org/1999/xlink" ffdec:objectType="shape" height="700.0px" width="700.0px" xmlns="http://www.w3.org/2000/svg">
  <g transform="matrix(7.0, 0.0, 0.0, 7.0, 0.0, 0.0)">
    <path d="M10.0 100.0 L0.0 100.0 0.0 0.0 10.0 0.0 10.0 100.0" fill="url(#gradient0)" fill-rule="evenodd" stroke="none"/>
    <path d="M20.0 100.0 L10.0 100.0 10.0 0.0 20.0 0.0 20.0 100.0" fill="url(#gradient1)" fill-rule="evenodd" stroke="none"/>
    <path d="M40.0 100.0 L30.0 100.0 30.0 0.0 40.0 0.0 40.0 100.0" fill="url(#gradient2)" fill-rule="evenodd" stroke="none"/>
    <path d="M30.0 100.0 L20.0 100.0 20.0 0.0 30.0 0.0 30.0 100.0" fill="url(#gradient3)" fill-rule="evenodd" stroke="none"/>
    <path d="M60.0 100.0 L50.0 100.0 50.0 0.0 60.0 0.0 60.0 100.0" fill="url(#gradient4)" fill-rule="evenodd" stroke="none"/>
    <path d="M50.0 100.0 L40.0 100.0 40.0 0.0 50.0 0.0 50.0 100.0" fill="url(#gradient5)" fill-rule="evenodd" stroke="none"/>
    <path d="M70.0 100.0 L60.0 100.0 60.0 0.0 70.0 0.0 70.0 100.0" fill="url(#gradient6)" fill-rule="evenodd" stroke="none"/>
    <path d="M80.0 100.0 L70.0 100.0 70.0 0.0 80.0 0.0 80.0 100.0" fill="url(#gradient7)" fill-rule="evenodd" stroke="none"/>
    <path d="M90.0 0.0 L100.0 0.0 100.0 100.0 90.0 100.0 90.0 0.0" fill="url(#gradient8)" fill-rule="evenodd" stroke="none"/>
    <path d="M90.0 100.0 L80.0 100.0 80.0 0.0 90.0 0.0 90.0 100.0" fill="url(#gradient9)" fill-rule="evenodd" stroke="none"/>
  </g>
  <defs>
    <linearGradient gradientTransform="matrix(0.0061, 0.0, 0.0, 0.061, 5.0, 50.0)" gradientUnits="userSpaceOnUse" id="gradient0" spreadMethod="pad" x1="-819.2" x2="819.2">
      <stop offset="0.0" stop-color="#990000"/>
      <stop offset="1.0" stop-color="#cc0000"/>
    </linearGradient>
    <linearGradient gradientTransform="matrix(0.0061, 0.0, 0.0, 0.061, 15.0, 50.0)" gradientUnits="userSpaceOnUse" id="gradient1" spreadMethod="pad" x1="-819.2" x2="819.2">
      <stop offset="0.0" stop-color="#990000"/>
      <stop offset="1.0" stop-color="#cc0000"/>
    </linearGradient>
    <linearGradient gradientTransform="matrix(0.0061, 0.0, 0.0, 0.061, 35.0, 50.0)" gradientUnits="userSpaceOnUse" id="gradient2" spreadMethod="pad" x1="-819.2" x2="819.2">
      <stop offset="0.0" stop-color="#990000"/>
      <stop offset="1.0" stop-color="#cc0000"/>
    </linearGradient>
    <linearGradient gradientTransform="matrix(0.0061, 0.0, 0.0, 0.061, 25.0, 50.0)" gradientUnits="userSpaceOnUse" id="gradient3" spreadMethod="pad" x1="-819.2" x2="819.2">
      <stop offset="0.0" stop-color="#990000"/>
      <stop offset="1.0" stop-color="#cc0000"/>
    </linearGradient>
    <linearGradient gradientTransform="matrix(0.0061, 0.0, 0.0, 0.061, 55.0, 50.0)" gradientUnits="userSpaceOnUse" id="gradient4" spreadMethod="pad" x1="-819.2" x2="819.2">
      <stop offset="0.0" stop-color="#990000"/>
      <stop offset="1.0" stop-color="#cc0000"/>
    </linearGradient>
    <linearGradient gradientTransform="matrix(0.0061, 0.0, 0.0, 0.061, 45.0, 50.0)" gradientUnits="userSpaceOnUse" id="gradient5" spreadMethod="pad" x1="-819.2" x2="819.2">
      <stop offset="0.0" stop-color="#990000"/>
      <stop offset="1.0" stop-color="#cc0000"/>
    </linearGradient>
    <linearGradient gradientTransform="matrix(0.0061, 0.0, 0.0, 0.061, 65.0, 50.0)" gradientUnits="userSpaceOnUse" id="gradient6" spreadMethod="pad" x1="-819.2" x2="819.2">
      <stop offset="0.0" stop-color="#990000"/>
      <stop offset="1.0" stop-color="#cc0000"/>
    </linearGradient>
    <linearGradient gradientTransform="matrix(0.0061, 0.0, 0.0, 0.061, 75.0, 50.0)" gradientUnits="userSpaceOnUse" id="gradient7" spreadMethod="pad" x1="-819.2" x2="819.2">
      <stop offset="0.0" stop-color="#990000"/>
      <stop offset="1.0" stop-color="#cc0000"/>
    </linearGradient>
    <linearGradient gradientTransform="matrix(0.0061, 0.0, 0.0, 0.061, 95.0, 50.0)" gradientUnits="userSpaceOnUse" id="gradient8" spreadMethod="pad" x1="-819.2" x2="819.2">
      <stop offset="0.0" stop-color="#990000"/>
      <stop offset="1.0" stop-color="#cc0000"/>
    </linearGradient>
    <linearGradient gradientTransform="matrix(0.0061, 0.0, 0.0, 0.061, 85.0, 50.0)" gradientUnits="userSpaceOnUse" id="gradient9" spreadMethod="pad" x1="-819.2" x2="819.2">
      <stop offset="0.0" stop-color="#990000"/>
      <stop offset="1.0" stop-color="#cc0000"/>
    </linearGradient>
  </defs>
</svg>
