<?xml version="1.0" encoding="UTF-8" standalone="no"?>
<svg xmlns:ffdec="https://www.free-decompiler.com/flash" xmlns:xlink="http://www.w3.org/1999/xlink" ffdec:objectType="shape" height="672.0px" width="686.0px" xmlns="http://www.w3.org/2000/svg">
  <g transform="matrix(7.0, 0.0, 0.0, 7.0, 343.0, 336.0)">
    <path d="M48.35 -46.15 Q49.0 -45.2 49.0 -43.95 L48.7 -42.35 46.65 -44.4 48.35 -46.15 M47.05 -40.5 Q46.1 -40.0 44.95 -40.0 43.85 -40.0 42.95 -40.55 L44.95 -42.6 47.05 -40.5 M41.35 -42.45 Q41.0 -43.2 41.0 -44.0 41.0 -45.2 41.65 -46.05 L43.25 -44.4 41.35 -42.45 M44.0 -47.9 L44.95 -48.0 45.95 -47.9 44.95 -46.9 44.0 -47.9 M44.95 -44.55 L44.95 -44.35 44.9 -44.4 44.8 -44.4 44.95 -44.55 M48.65 42.45 L49.0 44.0 Q49.0 45.2 48.35 46.05 L46.75 44.4 48.65 42.45 M46.0 47.9 L45.05 48.0 44.05 47.9 45.05 46.9 46.0 47.9 M41.65 46.15 Q41.0 45.2 41.0 43.95 41.0 43.1 41.3 42.35 L43.35 44.4 41.65 46.15 M42.95 40.5 Q43.9 40.0 45.05 40.0 46.15 40.0 47.05 40.55 L45.05 42.6 42.95 40.5 M45.1 44.4 L45.2 44.4 45.05 44.55 45.05 44.35 45.1 44.4 M-44.05 -47.9 L-45.05 -46.9 -46.0 -47.9 -45.05 -48.0 -44.05 -47.9 M-48.35 -46.05 L-46.75 -44.4 -48.65 -42.45 -49.0 -44.0 Q-49.0 -45.2 -48.35 -46.05 M-47.05 -40.55 L-45.05 -42.6 -42.95 -40.5 Q-43.9 -40.0 -45.05 -40.0 -46.15 -40.0 -47.05 -40.55 M-41.3 -42.35 L-43.35 -44.4 -41.65 -46.15 Q-41.0 -45.2 -41.0 -43.95 -41.0 -43.1 -41.3 -42.35 M-45.05 -44.55 L-45.05 -44.35 -45.1 -44.4 -45.2 -44.4 -45.05 -44.55 M-42.95 40.55 L-44.95 42.6 -47.05 40.5 Q-46.1 40.0 -44.95 40.0 -43.85 40.0 -42.95 40.55 M-48.7 42.35 L-46.65 44.4 -48.35 46.15 Q-49.0 45.2 -49.0 43.95 L-48.7 42.35 M-45.95 47.9 L-44.95 46.9 -44.0 47.9 -44.95 48.0 -45.95 47.9 M-41.65 46.05 L-43.25 44.4 -41.35 42.45 Q-41.0 43.2 -41.0 44.0 -41.0 45.2 -41.65 46.05" fill="#999999" fill-rule="evenodd" stroke="none"/>
    <path d="M48.35 -46.15 L46.65 -44.4 48.7 -42.35 48.0 -41.3 47.8 -41.15 47.05 -40.5 44.95 -42.6 42.95 -40.55 42.2 -41.15 41.9 -41.45 Q41.55 -41.9 41.35 -42.45 L43.25 -44.4 41.65 -46.05 42.2 -46.8 42.4 -46.95 Q43.1 -47.7 44.0 -47.9 L44.95 -46.9 45.95 -47.9 Q46.8 -47.7 47.5 -47.05 L47.8 -46.8 48.35 -46.15 M44.95 -44.55 L44.8 -44.4 44.9 -44.4 44.95 -44.35 44.95 -44.55 M47.05 40.55 L47.8 41.15 48.1 41.45 48.65 42.45 46.75 44.4 48.35 46.05 47.8 46.8 47.6 46.95 Q46.9 47.7 46.0 47.9 L45.05 46.9 44.05 47.9 42.5 47.05 42.2 46.8 41.65 46.15 43.35 44.4 41.3 42.35 42.0 41.3 42.2 41.15 42.95 40.5 45.05 42.6 47.05 40.55 M45.1 44.4 L45.05 44.35 45.05 44.55 45.2 44.4 45.1 44.4 M-44.05 -47.9 L-42.5 -47.05 -42.2 -46.8 -41.65 -46.15 -43.35 -44.4 -41.3 -42.35 -42.0 -41.3 -42.2 -41.15 -42.95 -40.5 -45.05 -42.6 -47.05 -40.55 -47.8 -41.15 -48.1 -41.45 -48.65 -42.45 -46.75 -44.4 -48.35 -46.05 -47.8 -46.8 -47.6 -46.95 Q-46.9 -47.7 -46.0 -47.9 L-45.05 -46.9 -44.05 -47.9 M-45.05 -44.55 L-45.2 -44.4 -45.1 -44.4 -45.05 -44.35 -45.05 -44.55 M-47.05 40.5 L-44.95 42.6 -42.95 40.55 -42.2 41.15 -41.9 41.45 Q-41.55 41.9 -41.35 42.45 L-43.25 44.4 -41.65 46.05 -42.2 46.8 -42.4 46.95 Q-43.1 47.7 -44.0 47.9 L-44.95 46.9 -45.95 47.9 Q-46.8 47.7 -47.5 47.05 L-47.8 46.8 -48.35 46.15 -46.65 44.4 -48.7 42.35 -48.0 41.3 -47.8 41.15 -47.05 40.5 M-44.95 44.35 L-44.95 44.55 -44.8 44.4 -44.9 44.4 -44.95 44.35" fill="#666666" fill-rule="evenodd" stroke="none"/>
  </g>
</svg>
