<?xml version="1.0" encoding="UTF-8" standalone="no"?>
<svg xmlns:ffdec="https://www.free-decompiler.com/flash" xmlns:xlink="http://www.w3.org/1999/xlink" ffdec:objectType="shape" height="313.6px" width="210.0px" xmlns="http://www.w3.org/2000/svg">
  <g transform="matrix(7.0, 0.0, 0.0, 7.0, 0.0, 157.15)">
    <path d="M11.5 -3.7 L25.4 -17.65 Q27.85 -13.1 29.0 -8.45 L11.5 -3.7 M28.6 9.3 Q26.7 15.75 22.4 22.35 L3.95 3.9 5.9 1.9 28.6 9.3" fill="#ff4a53" fill-rule="evenodd" stroke="none"/>
    <path d="M25.4 -17.65 L11.5 -3.7 11.45 -3.6 0.0 -0.05 22.4 -22.45 25.4 -17.65 M5.9 1.9 L3.95 3.9 0.0 -0.05 5.9 1.9" fill="#e12931" fill-rule="evenodd" stroke="none"/>
    <path d="M0.0 -0.05 L11.45 -3.6 5.9 1.9 0.0 -0.05" fill="#559bff" fill-rule="evenodd" stroke="none"/>
    <path d="M11.45 -3.6 L11.5 -3.7 29.0 -8.45 Q31.15 0.25 28.6 9.3 L5.9 1.9 11.45 -3.6" fill="#8cbcff" fill-rule="evenodd" stroke="none"/>
  </g>
</svg>
