<?xml version="1.0" encoding="UTF-8" standalone="no"?>
<svg xmlns:ffdec="https://www.free-decompiler.com/flash" xmlns:xlink="http://www.w3.org/1999/xlink" ffdec:objectType="shape" height="137.55px" width="136.5px" xmlns="http://www.w3.org/2000/svg">
  <g transform="matrix(7.0, 0.0, 0.0, 7.0, 68.25, 68.25)">
    <path d="M2.4 -2.45 L2.4 -2.3 2.4 2.45 2.35 2.6 -2.35 2.6 -2.45 2.45 -2.45 -2.3 -2.35 -2.45 2.4 -2.45" fill="#cccccc" fill-rule="evenodd" stroke="none"/>
    <path d="M2.4 -2.3 L9.25 0.55 2.4 2.45 2.4 -2.3 M2.35 2.6 L-0.45 9.4 -2.35 2.6 2.35 2.6 M-2.45 2.45 L-9.25 -0.35 -2.45 -2.3 -2.45 2.45 M-2.35 -2.45 L0.45 -9.25 2.4 -2.45 -2.35 -2.45" fill="#cc0000" fill-rule="evenodd" stroke="none"/>
    <path d="M2.4 -2.3 L9.25 0.55 2.4 2.45 2.4 -2.3 M2.35 2.6 L-0.45 9.4 -2.35 2.6 2.35 2.6 M-2.45 2.45 L-9.25 -0.35 -2.45 -2.3 -2.45 2.45 M-2.35 -2.45 L0.45 -9.25 2.4 -2.45 -2.35 -2.45 Z" fill="none" stroke="#cc0000" stroke-linecap="round" stroke-linejoin="round" stroke-width="1.0"/>
    <path d="M2.4 -2.45 L1.25 -2.45 0.45 -9.25 2.4 -2.45" fill="url(#gradient0)" fill-rule="evenodd" stroke="none"/>
    <path d="M9.2 0.35 L2.4 -1.15 2.4 -2.45 9.2 0.35" fill="url(#gradient1)" fill-rule="evenodd" stroke="none"/>
    <path d="M9.2 0.35 L2.4 2.25 2.4 1.15 9.2 0.35" fill="url(#gradient2)" fill-rule="evenodd" stroke="none"/>
    <path d="M-0.45 9.15 L1.1 2.35 2.4 2.35 -0.45 9.15" fill="url(#gradient3)" fill-rule="evenodd" stroke="none"/>
    <path d="M-2.35 -2.45 L-2.35 -1.35 -9.2 -0.5 -2.35 -2.45" fill="url(#gradient4)" fill-rule="evenodd" stroke="none"/>
    <path d="M0.45 -9.25 L-1.05 -2.45 -2.35 -2.45 0.45 -9.25" fill="url(#gradient5)" fill-rule="evenodd" stroke="none"/>
    <path d="M-0.45 9.15 L-2.35 2.35 -1.25 2.35 -0.45 9.15" fill="url(#gradient6)" fill-rule="evenodd" stroke="none"/>
    <path d="M-9.2 -0.5 L-2.35 1.0 -2.35 2.25 -9.2 -0.5" fill="url(#gradient7)" fill-rule="evenodd" stroke="none"/>
  </g>
  <defs>
    <linearGradient gradientTransform="matrix(0.0012, 0.0, 0.0, 0.0042, 1.4, -5.85)" gradientUnits="userSpaceOnUse" id="gradient0" spreadMethod="pad" x1="-819.2" x2="819.2">
      <stop offset="0.0" stop-color="#ffffff" stop-opacity="0.2"/>
      <stop offset="1.0" stop-color="#ffffff" stop-opacity="0.0"/>
    </linearGradient>
    <linearGradient gradientTransform="matrix(0.0, 0.0017, -0.0042, 0.0, 5.8, -1.05)" gradientUnits="userSpaceOnUse" id="gradient1" spreadMethod="pad" x1="-819.2" x2="819.2">
      <stop offset="0.0" stop-color="#000000" stop-opacity="0.2509804"/>
      <stop offset="1.0" stop-color="#000400" stop-opacity="0.0"/>
    </linearGradient>
    <linearGradient gradientTransform="matrix(0.0, 0.0012, -0.0042, 0.0, 5.8, 1.35)" gradientUnits="userSpaceOnUse" id="gradient2" spreadMethod="pad" x1="-819.2" x2="819.2">
      <stop offset="0.0" stop-color="#ffffff" stop-opacity="0.2"/>
      <stop offset="1.0" stop-color="#ffffff" stop-opacity="0.0"/>
    </linearGradient>
    <linearGradient gradientTransform="matrix(-0.0017, 0.0, 0.0, -0.0042, 1.0, 5.75)" gradientUnits="userSpaceOnUse" id="gradient3" spreadMethod="pad" x1="-819.2" x2="819.2">
      <stop offset="0.0" stop-color="#000000" stop-opacity="0.2509804"/>
      <stop offset="1.0" stop-color="#000400" stop-opacity="0.0"/>
    </linearGradient>
    <linearGradient gradientTransform="matrix(0.0, -0.0012, 0.0042, 0.0, -5.8, -1.5)" gradientUnits="userSpaceOnUse" id="gradient4" spreadMethod="pad" x1="-819.2" x2="819.2">
      <stop offset="0.0" stop-color="#ffffff" stop-opacity="0.2"/>
      <stop offset="1.0" stop-color="#ffffff" stop-opacity="0.0"/>
    </linearGradient>
    <linearGradient gradientTransform="matrix(0.0017, 0.0, 0.0, 0.0042, -0.95, -5.85)" gradientUnits="userSpaceOnUse" id="gradient5" spreadMethod="pad" x1="-819.2" x2="819.2">
      <stop offset="0.0" stop-color="#000000" stop-opacity="0.2509804"/>
      <stop offset="1.0" stop-color="#000400" stop-opacity="0.0"/>
    </linearGradient>
    <linearGradient gradientTransform="matrix(-0.0012, 0.0, 0.0, -0.0042, -1.4, 5.75)" gradientUnits="userSpaceOnUse" id="gradient6" spreadMethod="pad" x1="-819.2" x2="819.2">
      <stop offset="0.0" stop-color="#ffffff" stop-opacity="0.2"/>
      <stop offset="1.0" stop-color="#ffffff" stop-opacity="0.0"/>
    </linearGradient>
    <linearGradient gradientTransform="matrix(0.0, -0.0017, 0.0042, 0.0, -5.8, 0.85)" gradientUnits="userSpaceOnUse" id="gradient7" spreadMethod="pad" x1="-819.2" x2="819.2">
      <stop offset="0.0" stop-color="#000000" stop-opacity="0.2509804"/>
      <stop offset="1.0" stop-color="#000400" stop-opacity="0.0"/>
    </linearGradient>
  </defs>
</svg>
