<?xml version="1.0" encoding="UTF-8" standalone="no"?>
<svg xmlns:ffdec="https://www.free-decompiler.com/flash" xmlns:xlink="http://www.w3.org/1999/xlink" ffdec:objectType="shape" height="188.65px" width="249.9px" xmlns="http://www.w3.org/2000/svg">
  <g transform="matrix(7.0, 0.0, 0.0, 7.0, 125.65, -15.75)">
    <path d="M-5.45 2.25 L11.3 2.25 Q22.6 15.75 11.3 29.2 L-12.95 29.2 -5.45 2.55 -5.45 2.25" fill="url(#gradient0)" fill-rule="evenodd" stroke="none"/>
    <path d="M-5.45 2.25 L-5.45 2.55 -14.35 29.2 -17.95 29.2 -9.2 2.25 -5.45 2.25" fill="#666666" fill-rule="evenodd" stroke="none"/>
    <path d="M-5.45 2.55 L-12.95 29.2 -14.35 29.2 -5.45 2.55" fill="#000000" fill-rule="evenodd" stroke="none"/>
    <path d="M5.55 13.2 L5.65 13.05 10.4 13.05 10.4 13.2 10.4 17.95 10.35 18.1 5.65 18.1 5.55 17.95 5.55 13.2" fill="#cccccc" fill-rule="evenodd" stroke="none"/>
    <path d="M5.55 13.2 L5.55 17.95 -1.25 15.15 5.55 13.2 M5.65 18.1 L10.35 18.1 7.55 24.9 5.65 18.1 M10.4 17.95 L10.4 13.2 17.25 16.05 10.4 17.95 M10.4 13.05 L5.65 13.05 8.45 6.25 10.4 13.05" fill="#cc0000" fill-rule="evenodd" stroke="none"/>
    <path d="M5.55 13.2 L5.55 17.95 -1.25 15.15 5.55 13.2 M5.65 18.1 L10.35 18.1 7.55 24.9 5.65 18.1 M10.4 17.95 L10.4 13.2 17.25 16.05 10.4 17.95 M10.4 13.05 L5.65 13.05 8.45 6.25 10.4 13.05 Z" fill="none" stroke="#cc0000" stroke-linecap="round" stroke-linejoin="round" stroke-width="1.0"/>
    <path d="M5.65 13.05 L8.45 6.25 6.95 13.05 5.65 13.05" fill="url(#gradient1)" fill-rule="evenodd" stroke="none"/>
    <path d="M5.65 13.05 L5.65 14.15 -1.2 15.0 5.65 13.05" fill="url(#gradient2)" fill-rule="evenodd" stroke="none"/>
    <path d="M-1.2 15.0 L5.65 16.5 5.65 17.75 -1.2 15.0" fill="url(#gradient3)" fill-rule="evenodd" stroke="none"/>
    <path d="M7.55 24.65 L5.65 17.85 6.75 17.85 7.55 24.65" fill="url(#gradient4)" fill-rule="evenodd" stroke="none"/>
    <path d="M7.55 24.65 L9.1 17.85 10.4 17.85 7.55 24.65" fill="url(#gradient5)" fill-rule="evenodd" stroke="none"/>
    <path d="M10.4 13.05 L17.2 15.85 10.4 14.35 10.4 13.05" fill="url(#gradient6)" fill-rule="evenodd" stroke="none"/>
    <path d="M17.2 15.85 L10.4 17.75 10.4 16.65 17.2 15.85" fill="url(#gradient7)" fill-rule="evenodd" stroke="none"/>
    <path d="M8.45 6.25 L10.4 13.05 9.25 13.05 8.45 6.25" fill="url(#gradient8)" fill-rule="evenodd" stroke="none"/>
  </g>
  <defs>
    <linearGradient gradientTransform="matrix(0.0137, 0.0, 0.0, 0.0164, 5.75, 15.7)" gradientUnits="userSpaceOnUse" id="gradient0" spreadMethod="pad" x1="-819.2" x2="819.2">
      <stop offset="0.0" stop-color="#020202" stop-opacity="0.2"/>
      <stop offset="0.3137254901960784" stop-color="#000000" stop-opacity="0.0"/>
    </linearGradient>
    <linearGradient gradientTransform="matrix(0.0017, 0.0, 0.0, 0.0042, 7.05, 9.65)" gradientUnits="userSpaceOnUse" id="gradient1" spreadMethod="pad" x1="-819.2" x2="819.2">
      <stop offset="0.0" stop-color="#000000" stop-opacity="0.2509804"/>
      <stop offset="1.0" stop-color="#000400" stop-opacity="0.0"/>
    </linearGradient>
    <linearGradient gradientTransform="matrix(0.0, -0.0012, 0.0042, 0.0, 2.2, 14.0)" gradientUnits="userSpaceOnUse" id="gradient2" spreadMethod="pad" x1="-819.2" x2="819.2">
      <stop offset="0.0" stop-color="#ffffff" stop-opacity="0.2"/>
      <stop offset="1.0" stop-color="#ffffff" stop-opacity="0.0"/>
    </linearGradient>
    <linearGradient gradientTransform="matrix(0.0, -0.0017, 0.0042, 0.0, 2.2, 16.35)" gradientUnits="userSpaceOnUse" id="gradient3" spreadMethod="pad" x1="-819.2" x2="819.2">
      <stop offset="0.0" stop-color="#000000" stop-opacity="0.2509804"/>
      <stop offset="1.0" stop-color="#000400" stop-opacity="0.0"/>
    </linearGradient>
    <linearGradient gradientTransform="matrix(-0.0012, 0.0, 0.0, -0.0042, 6.6, 21.25)" gradientUnits="userSpaceOnUse" id="gradient4" spreadMethod="pad" x1="-819.2" x2="819.2">
      <stop offset="0.0" stop-color="#ffffff" stop-opacity="0.2"/>
      <stop offset="1.0" stop-color="#ffffff" stop-opacity="0.0"/>
    </linearGradient>
    <linearGradient gradientTransform="matrix(-0.0017, 0.0, 0.0, -0.0042, 9.0, 21.25)" gradientUnits="userSpaceOnUse" id="gradient5" spreadMethod="pad" x1="-819.2" x2="819.2">
      <stop offset="0.0" stop-color="#000000" stop-opacity="0.2509804"/>
      <stop offset="1.0" stop-color="#000400" stop-opacity="0.0"/>
    </linearGradient>
    <linearGradient gradientTransform="matrix(0.0, 0.0017, -0.0042, 0.0, 13.8, 14.45)" gradientUnits="userSpaceOnUse" id="gradient6" spreadMethod="pad" x1="-819.2" x2="819.2">
      <stop offset="0.0" stop-color="#000000" stop-opacity="0.2509804"/>
      <stop offset="1.0" stop-color="#000400" stop-opacity="0.0"/>
    </linearGradient>
    <linearGradient gradientTransform="matrix(0.0, 0.0012, -0.0042, 0.0, 13.8, 16.85)" gradientUnits="userSpaceOnUse" id="gradient7" spreadMethod="pad" x1="-819.2" x2="819.2">
      <stop offset="0.0" stop-color="#ffffff" stop-opacity="0.2"/>
      <stop offset="1.0" stop-color="#ffffff" stop-opacity="0.0"/>
    </linearGradient>
    <linearGradient gradientTransform="matrix(0.0012, 0.0, 0.0, 0.0042, 9.4, 9.65)" gradientUnits="userSpaceOnUse" id="gradient8" spreadMethod="pad" x1="-819.2" x2="819.2">
      <stop offset="0.0" stop-color="#ffffff" stop-opacity="0.2"/>
      <stop offset="1.0" stop-color="#ffffff" stop-opacity="0.0"/>
    </linearGradient>
  </defs>
</svg>
