<?xml version="1.0" encoding="UTF-8" standalone="no"?>
<svg xmlns:ffdec="https://www.free-decompiler.com/flash" xmlns:xlink="http://www.w3.org/1999/xlink" ffdec:objectType="shape" height="205.8px" width="204.4px" xmlns="http://www.w3.org/2000/svg">
  <g transform="matrix(7.0, 0.0, 0.0, 7.0, 101.15, -8.4)">
    <path d="M-3.45 12.05 L0.85 1.7 3.8 12.05 -3.45 12.05 M3.8 12.3 L14.25 16.65 3.8 19.55 3.8 12.3 M3.75 19.75 L-0.55 30.1 -3.45 19.75 3.75 19.75 M-3.6 19.55 L-13.95 15.25 -3.6 12.3 -3.6 19.55" fill="#33cc00" fill-rule="evenodd" stroke="none"/>
    <path d="M3.8 12.05 L3.8 12.3 3.8 19.55 3.75 19.75 -3.45 19.75 -3.6 19.55 -3.6 12.3 -3.45 12.05 3.8 12.05" fill="#cccccc" fill-rule="evenodd" stroke="none"/>
    <path d="M-3.45 12.05 L0.85 1.7 3.8 12.05 -3.45 12.05 M3.8 12.3 L14.25 16.65 3.8 19.55 3.8 12.3 M3.75 19.75 L-0.55 30.1 -3.45 19.75 3.75 19.75 M-3.6 19.55 L-13.95 15.25 -3.6 12.3 -3.6 19.55 Z" fill="none" stroke="#33cc00" stroke-linecap="round" stroke-linejoin="round" stroke-width="1.0"/>
    <path d="M3.8 12.05 L2.05 12.05 0.85 1.7 3.8 12.05" fill="url(#gradient0)" fill-rule="evenodd" stroke="none"/>
    <path d="M-0.55 29.75 L1.85 19.4 3.8 19.4 -0.55 29.75" fill="url(#gradient1)" fill-rule="evenodd" stroke="none"/>
    <path d="M14.15 16.35 L3.8 19.25 3.8 17.55 14.15 16.35" fill="url(#gradient2)" fill-rule="evenodd" stroke="none"/>
    <path d="M3.8 12.05 L14.15 16.35 3.8 14.05 3.8 12.05" fill="url(#gradient3)" fill-rule="evenodd" stroke="none"/>
    <path d="M0.85 1.7 L-1.45 12.05 -3.45 12.05 0.85 1.7" fill="url(#gradient4)" fill-rule="evenodd" stroke="none"/>
    <path d="M-0.55 29.75 L-3.45 19.4 -1.75 19.4 -0.55 29.75" fill="url(#gradient5)" fill-rule="evenodd" stroke="none"/>
    <path d="M-13.85 15.05 L-3.45 17.3 -3.45 19.25 -13.85 15.05" fill="url(#gradient6)" fill-rule="evenodd" stroke="none"/>
    <path d="M-3.45 12.05 L-3.45 13.75 -13.85 15.05 -3.45 12.05" fill="url(#gradient7)" fill-rule="evenodd" stroke="none"/>
  </g>
  <defs>
    <linearGradient gradientTransform="matrix(0.0018, 0.0, 0.0, 0.0063, 2.3, 6.9)" gradientUnits="userSpaceOnUse" id="gradient0" spreadMethod="pad" x1="-819.2" x2="819.2">
      <stop offset="0.0" stop-color="#ffffff" stop-opacity="0.2"/>
      <stop offset="1.0" stop-color="#ffffff" stop-opacity="0.0"/>
    </linearGradient>
    <linearGradient gradientTransform="matrix(-0.0026, 0.0, 0.0, -0.0063, 1.65, 24.55)" gradientUnits="userSpaceOnUse" id="gradient1" spreadMethod="pad" x1="-819.2" x2="819.2">
      <stop offset="0.0" stop-color="#000000" stop-opacity="0.2509804"/>
      <stop offset="1.0" stop-color="#000400" stop-opacity="0.0"/>
    </linearGradient>
    <linearGradient gradientTransform="matrix(0.0, 0.0018, -0.0063, 0.0, 9.0, 17.85)" gradientUnits="userSpaceOnUse" id="gradient2" spreadMethod="pad" x1="-819.2" x2="819.2">
      <stop offset="0.0" stop-color="#ffffff" stop-opacity="0.2"/>
      <stop offset="1.0" stop-color="#ffffff" stop-opacity="0.0"/>
    </linearGradient>
    <linearGradient gradientTransform="matrix(0.0, 0.0026, -0.0063, 0.0, 9.0, 14.2)" gradientUnits="userSpaceOnUse" id="gradient3" spreadMethod="pad" x1="-819.2" x2="819.2">
      <stop offset="0.0" stop-color="#000000" stop-opacity="0.2509804"/>
      <stop offset="1.0" stop-color="#000400" stop-opacity="0.0"/>
    </linearGradient>
    <linearGradient gradientTransform="matrix(0.0026, 0.0, 0.0, 0.0063, -1.3, 6.9)" gradientUnits="userSpaceOnUse" id="gradient4" spreadMethod="pad" x1="-819.2" x2="819.2">
      <stop offset="0.0" stop-color="#000000" stop-opacity="0.2509804"/>
      <stop offset="1.0" stop-color="#000400" stop-opacity="0.0"/>
    </linearGradient>
    <linearGradient gradientTransform="matrix(-0.0018, 0.0, 0.0, -0.0063, -2.0, 24.55)" gradientUnits="userSpaceOnUse" id="gradient5" spreadMethod="pad" x1="-819.2" x2="819.2">
      <stop offset="0.0" stop-color="#ffffff" stop-opacity="0.2"/>
      <stop offset="1.0" stop-color="#ffffff" stop-opacity="0.0"/>
    </linearGradient>
    <linearGradient gradientTransform="matrix(0.0, -0.0026, 0.0063, 0.0, -8.7, 17.1)" gradientUnits="userSpaceOnUse" id="gradient6" spreadMethod="pad" x1="-819.2" x2="819.2">
      <stop offset="0.0" stop-color="#000000" stop-opacity="0.2509804"/>
      <stop offset="1.0" stop-color="#000400" stop-opacity="0.0"/>
    </linearGradient>
    <linearGradient gradientTransform="matrix(0.0, -0.0018, 0.0063, 0.0, -8.7, 13.5)" gradientUnits="userSpaceOnUse" id="gradient7" spreadMethod="pad" x1="-819.2" x2="819.2">
      <stop offset="0.0" stop-color="#ffffff" stop-opacity="0.2"/>
      <stop offset="1.0" stop-color="#ffffff" stop-opacity="0.0"/>
    </linearGradient>
  </defs>
</svg>
