<?xml version="1.0" encoding="UTF-8" standalone="no"?>
<svg xmlns:ffdec="https://www.free-decompiler.com/flash" xmlns:xlink="http://www.w3.org/1999/xlink" ffdec:objectType="shape" height="235.9px" width="235.9px" xmlns="http://www.w3.org/2000/svg">
  <g transform="matrix(7.0, 0.0, 0.0, 7.0, 114.45, 9.1)">
    <path d="M16.45 -0.4 L16.55 -0.3 16.35 -0.2 16.35 0.0 Q17.9 1.35 17.1 3.85 L16.95 3.9 Q16.2 2.55 15.8 1.15 13.6 5.25 9.15 6.9 8.5 7.15 8.85 6.4 L15.45 0.2 Q13.45 0.8 12.05 -1.0 14.25 -1.1 16.45 -0.4 M9.65 23.9 L15.85 30.5 Q15.25 28.5 17.05 27.1 17.15 29.3 16.45 31.5 L16.35 31.6 16.25 31.4 16.05 31.4 Q14.7 32.95 12.2 32.15 L12.15 32.0 Q13.5 31.25 14.9 30.85 10.8 28.65 9.15 24.2 8.9 23.55 9.65 23.9 M-15.35 -0.5 L-15.25 -0.3 -15.05 -0.3 Q-13.7 -1.85 -11.2 -1.05 L-11.15 -0.9 Q-12.5 -0.15 -13.9 0.25 -9.8 2.45 -8.15 6.9 -7.9 7.55 -8.65 7.2 L-14.85 0.6 Q-14.25 2.6 -16.05 4.0 -16.15 1.8 -15.45 -0.4 L-15.35 -0.5 M-7.85 24.7 L-14.45 30.9 Q-12.45 30.3 -11.05 32.1 -13.25 32.2 -15.45 31.5 L-15.55 31.4 -15.35 31.3 -15.35 31.1 Q-16.9 29.75 -16.1 27.25 L-15.95 27.2 Q-15.2 28.55 -14.8 29.95 -12.6 25.85 -8.15 24.2 -7.5 23.95 -7.85 24.7" fill="#cc0000" fill-rule="evenodd" stroke="none"/>
  </g>
</svg>
