<?xml version="1.0" encoding="UTF-8" standalone="no"?>
<svg xmlns:ffdec="https://www.free-decompiler.com/flash" xmlns:xlink="http://www.w3.org/1999/xlink" ffdec:objectType="shape" height="272.65px" width="272.65px" xmlns="http://www.w3.org/2000/svg">
  <g transform="matrix(7.0, 0.0, 0.0, 7.0, -91.35, -12.95)">
    <path d="M33.95 13.8 L45.55 7.05 46.8 9.2 50.2 15.15 38.0 22.2 45.05 34.35 37.55 38.7 36.95 39.0 31.15 29.0 29.9 26.85 18.3 33.6 17.7 33.9 13.05 25.8 25.25 18.75 18.2 6.5 26.3 1.85 27.55 4.0 33.35 14.1 33.95 13.8" fill="#ff0000" fill-rule="evenodd" stroke="none"/>
    <path d="M46.8 9.2 L47.35 8.85 52.0 16.95 39.8 24.0 46.85 36.15 38.75 40.8 37.55 38.7 45.05 34.35 38.0 22.2 50.2 15.15 46.8 9.2 M31.15 29.0 L19.5 35.7 18.3 33.6 29.9 26.85 31.15 29.0 M27.55 4.0 L28.1 3.65 33.95 13.8 33.35 14.1 27.55 4.0" fill="#990000" fill-rule="evenodd" stroke="none"/>
  </g>
</svg>
