<?xml version="1.0" encoding="UTF-8" standalone="no"?>
<svg xmlns:ffdec="https://www.free-decompiler.com/flash" xmlns:xlink="http://www.w3.org/1999/xlink" ffdec:objectType="shape" height="201.6px" width="1561.0px" xmlns="http://www.w3.org/2000/svg">
  <g transform="matrix(7.0, 0.0, 0.0, 7.0, 0.0, 12.95)">
    <path d="M12.5 0.3 L12.5 0.0 29.25 0.0 Q40.55 13.5 29.25 26.95 L5.0 26.95 12.5 0.3" fill="url(#gradient0)" fill-rule="evenodd" stroke="none"/>
    <path d="M12.5 0.0 L12.5 0.3 3.6 26.95 0.0 26.95 8.75 0.0 12.5 0.0" fill="#666666" fill-rule="evenodd" stroke="none"/>
    <path d="M204.5 -1.75 Q211.35 6.7 220.4 11.25 220.65 11.35 220.75 11.75 209.05 10.85 203.65 -1.7 L204.5 -1.75 M221.0 14.0 Q222.8 19.8 209.35 25.35 L209.0 25.0 Q214.6 21.25 219.6 15.05 220.3 14.15 221.0 14.0 M223.0 13.0 L222.25 13.75 Q118.65 14.75 15.0 12.95 11.05 12.85 15.0 11.0 118.65 11.25 222.25 12.25 222.65 12.25 223.0 13.0" fill="#cc0000" fill-rule="evenodd" stroke="none"/>
  </g>
  <defs>
    <linearGradient gradientTransform="matrix(0.0137, 0.0, 0.0, 0.0164, 23.7, 13.45)" gradientUnits="userSpaceOnUse" id="gradient0" spreadMethod="pad" x1="-819.2" x2="819.2">
      <stop offset="0.0" stop-color="#020202" stop-opacity="0.2"/>
      <stop offset="0.3137254901960784" stop-color="#000000" stop-opacity="0.0"/>
    </linearGradient>
  </defs>
</svg>
