<?xml version="1.0" encoding="UTF-8" standalone="no"?>
<svg xmlns:ffdec="https://www.free-decompiler.com/flash" xmlns:xlink="http://www.w3.org/1999/xlink" ffdec:objectType="shape" height="154.0px" width="156.1px" xmlns="http://www.w3.org/2000/svg">
  <g transform="matrix(7.0, 0.0, 0.0, 7.0, 73.5, -30.8)">
    <path d="M0.6 17.4 Q1.35 17.4 1.95 16.9 2.45 16.3 2.45 15.55 2.45 14.75 1.95 14.2 1.35 13.65 0.6 13.65 -0.2 13.65 -0.75 14.2 -1.3 14.75 -1.3 15.55 -1.3 16.3 -0.75 16.9 -0.2 17.4 0.6 17.4 M10.15 9.85 L8.45 11.6 11.0 11.7 9.05 13.15 11.7 13.8 9.5 14.8 11.8 15.85 9.4 16.45 11.55 17.9 9.1 18.05 10.9 19.8 8.6 19.55 10.0 21.5 7.65 20.8 8.7 23.1 6.55 21.95 7.15 24.45 5.25 23.0 5.4 25.5 3.8 23.7 3.55 23.8 3.2 26.15 2.1 24.15 1.95 24.2 1.15 26.4 0.45 24.3 0.25 24.3 -0.9 26.3 -1.25 24.1 -1.4 24.05 -2.9 25.8 -2.8 23.65 -2.85 23.6 -4.6 25.05 -4.15 22.9 -4.35 22.8 -6.3 23.9 -5.45 21.85 -5.6 21.75 -5.6 21.7 -7.8 22.45 -6.55 20.6 -6.65 20.45 -8.95 20.75 -7.45 19.25 -9.9 19.15 -8.0 17.7 -10.45 17.2 -8.3 16.15 -10.5 15.25 -8.15 14.6 -10.3 13.2 -7.85 13.0 -9.7 11.2 -7.25 11.45 -8.75 9.4 -6.55 10.45 -6.45 10.35 -7.6 7.9 -5.4 8.95 -6.1 6.55 -4.1 8.0 -4.35 5.45 -2.65 7.25 -2.45 4.7 -0.95 6.9 -0.15 4.4 0.7 6.7 1.9 4.45 2.3 6.95 3.9 4.9 3.9 7.35 5.8 5.7 5.35 7.95 7.4 6.75 6.15 8.85 6.4 9.1 6.45 9.05 8.9 8.15 7.6 10.25 10.15 9.85" fill="#6699cc" fill-rule="evenodd" stroke="none"/>
  </g>
</svg>
