<?xml version="1.0" encoding="UTF-8" standalone="no"?>
<svg xmlns:ffdec="https://www.free-decompiler.com/flash" xmlns:xlink="http://www.w3.org/1999/xlink" ffdec:objectType="shape" height="56.0px" width="247.8px" xmlns="http://www.w3.org/2000/svg">
  <g transform="matrix(7.0, 0.0, 0.0, 7.0, 123.9, -77.0)">
    <path d="M15.0 12.0 Q16.6 13.5 17.7 15.55 L17.7 15.7 17.45 15.65 17.3 15.75 Q17.45 17.85 15.15 19.0 L15.0 18.95 16.1 16.2 Q11.7 17.55 7.35 15.55 6.7 15.25 7.5 15.0 L16.55 15.25 Q14.7 14.3 15.0 12.05 L15.0 12.0 M-15.0 11.05 L-16.1 13.8 Q-11.7 12.45 -7.35 14.45 -6.7 14.75 -7.5 15.0 L-16.55 14.75 Q-14.7 15.7 -15.0 17.95 L-15.0 18.0 Q-16.6 16.5 -17.7 14.45 L-17.7 14.3 -17.45 14.35 -17.3 14.25 Q-17.45 12.15 -15.15 11.0 -15.1 10.95 -15.0 11.05" fill="#cc0000" fill-rule="evenodd" stroke="none"/>
  </g>
</svg>
