<?xml version="1.0" encoding="UTF-8"?>
<svg id="Layer_2" data-name="Layer 2" xmlns="http://www.w3.org/2000/svg" viewBox="0 0 37.51 11.56">
  <defs>
    <style>
      .cls-1 {
        fill: #8dc63f;
      }
    </style>
  </defs>
  <g id="Layer_1-2" data-name="Layer 1">
    <g>
      <path class="cls-1" d="m5.09,6.11h2.05c-.03.59-.19,1.12-.48,1.57s-.7.81-1.22,1.06-1.13.38-1.83.38c-.76,0-1.41-.17-1.95-.5s-.95-.81-1.24-1.43-.43-1.36-.43-2.21v-.46c0-.86.15-1.59.45-2.22s.71-1.1,1.25-1.44,1.17-.5,1.89-.5,1.37.13,1.88.4.91.63,1.19,1.09.45.99.5,1.58h-2.05c-.02-.48-.14-.84-.36-1.09s-.61-.37-1.16-.37c-.51,0-.88.2-1.13.59s-.37,1.04-.37,1.95v.47c0,.91.12,1.56.35,1.95s.62.59,1.18.59c.46,0,.82-.11,1.08-.34s.39-.58.4-1.06Z"/>
      <path class="cls-1" d="m10.11,0v9h-1.98V0h1.98Z"/>
      <path class="cls-1" d="m14.89,9c-.07-.15-.13-.34-.18-.57-.15.19-.35.35-.59.49s-.55.2-.93.2-.75-.08-1.08-.24-.59-.38-.78-.67-.29-.62-.29-.99c0-.65.24-1.16.72-1.53s1.23-.55,2.25-.55h.61v-.33c0-.27-.06-.48-.17-.64s-.31-.24-.58-.24c-.47,0-.7.23-.7.69h-1.97c0-.39.11-.75.34-1.06s.55-.56.97-.74.91-.27,1.47-.27c.5,0,.95.08,1.35.25s.71.42.94.75.35.75.35,1.26v2.6c0,.41.02.73.07.94s.11.4.2.56v.1h-1.98Zm-1.24-1.29c.24,0,.45-.05.61-.16s.28-.22.35-.35v-1.03h-.62c-.37,0-.62.09-.77.28s-.22.4-.22.64c0,.18.06.33.18.44s.28.17.46.17Z"/>
      <path class="cls-1" d="m21.02,7.22c0-.16-.08-.29-.25-.4s-.5-.21-.99-.32c-.41-.09-.79-.22-1.13-.38s-.61-.38-.81-.63-.3-.57-.3-.94.1-.69.31-.99.5-.55.89-.73.86-.28,1.42-.28c.85,0,1.53.19,2.02.57s.75.88.75,1.49h-1.97c0-.24-.06-.43-.18-.56s-.33-.2-.62-.2c-.2,0-.38.05-.52.16s-.22.26-.22.44c0,.17.08.31.25.42s.44.2.81.27c.43.08.82.19,1.2.33s.67.35.91.62.35.62.35,1.07c0,.37-.11.71-.34,1s-.55.53-.96.7-.9.25-1.47.25c-.61,0-1.12-.11-1.54-.33s-.73-.49-.95-.82-.32-.67-.32-1h1.84c.01.29.11.51.3.64s.42.2.72.2c.27,0,.47-.05.61-.16s.21-.25.21-.43Z"/>
      <path class="cls-1" d="m27.17,7.22c0-.16-.08-.29-.25-.4s-.5-.21-.99-.32c-.41-.09-.79-.22-1.13-.38s-.61-.38-.81-.63-.3-.57-.3-.94.1-.69.31-.99.5-.55.89-.73.86-.28,1.42-.28c.85,0,1.53.19,2.02.57s.75.88.75,1.49h-1.97c0-.24-.06-.43-.18-.56s-.33-.2-.62-.2c-.2,0-.38.05-.52.16s-.22.26-.22.44c0,.17.08.31.25.42s.44.2.81.27c.43.08.82.19,1.2.33s.67.35.91.62.35.62.35,1.07c0,.37-.11.71-.34,1s-.55.53-.96.7-.9.25-1.47.25c-.61,0-1.12-.11-1.54-.33s-.73-.49-.95-.82-.32-.67-.32-1h1.84c.01.29.11.51.3.64s.42.2.72.2c.27,0,.47-.05.61-.16s.21-.25.21-.43Z"/>
    </g>
  </g>
</svg>