<?xml version="1.0" encoding="UTF-8"?>
<svg id="Layer_2" data-name="Layer 2" xmlns="http://www.w3.org/2000/svg" viewBox="0 0 37.51 11.56">
  <defs>
    <style>
      .cls-1 {
        fill: #00aeef;
      }
    </style>
  </defs>
  <g id="Layer_1-2" data-name="Layer 1">
    <g>
      <path class="cls-1" d="m5.64,7.42v1.58H0V.47h2.06v6.95h3.58Z"/>
      <path class="cls-1" d="m6.4,1.03c0-.28.1-.51.3-.69s.47-.27.79-.27.59.09.79.27.3.41.3.69-.1.51-.3.69-.47.27-.79.27-.59-.09-.79-.27-.3-.41-.3-.69Zm2.1,1.63v6.34h-1.98V2.66h1.98Z"/>
      <path class="cls-1" d="m15.59,5.76v.12c0,.64-.09,1.2-.26,1.68s-.45.87-.81,1.14-.83.41-1.39.41c-.34,0-.64-.07-.9-.21s-.47-.32-.65-.56l-.09.65h-1.77V0h1.97v3.16c.18-.2.38-.35.61-.46s.5-.16.81-.16c.57,0,1.03.14,1.4.42s.64.66.81,1.14.26,1.04.26,1.66Zm-1.97.12v-.12c0-.31-.03-.59-.08-.85s-.15-.46-.29-.62-.35-.23-.63-.23c-.45,0-.76.17-.93.5v2.53c.17.33.48.5.94.5.29,0,.5-.07.64-.22s.23-.35.28-.6.07-.56.07-.9Z"/>
      <path class="cls-1" d="m20.33,2.61l-.04,1.83c-.08,0-.18-.02-.32-.03s-.24-.02-.33-.02c-.62,0-1.01.19-1.19.58v4.02h-1.97V2.66h1.85l.06.81c.16-.29.35-.52.59-.68s.5-.24.81-.24c.22,0,.4.02.54.07Z"/>
      <path class="cls-1" d="m24.35,9c-.07-.15-.13-.34-.18-.57-.15.19-.35.35-.59.49s-.55.2-.93.2-.75-.08-1.08-.24-.59-.38-.78-.67-.29-.62-.29-.99c0-.65.24-1.16.72-1.53s1.23-.55,2.25-.55h.61v-.33c0-.27-.06-.48-.17-.64s-.31-.24-.58-.24c-.47,0-.7.23-.7.69h-1.97c0-.39.11-.75.34-1.06s.55-.56.97-.74.91-.27,1.47-.27c.5,0,.95.08,1.35.25s.71.42.94.75.35.75.35,1.26v2.6c0,.41.02.73.07.94s.11.4.2.56v.1h-1.98Zm-1.24-1.29c.24,0,.45-.05.61-.16s.28-.22.35-.35v-1.03h-.62c-.37,0-.62.09-.77.28s-.22.4-.22.64c0,.18.06.33.18.44s.28.17.46.17Z"/>
      <path class="cls-1" d="m31.02,2.61l-.04,1.83c-.08,0-.18-.02-.32-.03s-.24-.02-.33-.02c-.62,0-1.01.19-1.19.58v4.02h-1.97V2.66h1.85l.06.81c.16-.29.35-.52.59-.68s.5-.24.81-.24c.22,0,.4.02.54.07Z"/>
      <path class="cls-1" d="m33.33,2.66l1.01,3.58,1.05-3.58h2.12l-2.55,7.28c-.05.16-.13.33-.22.52s-.21.36-.37.53-.36.3-.6.41-.55.16-.91.16c-.19,0-.33,0-.42-.03s-.22-.05-.4-.09v-1.41h.26c.32,0,.54-.05.67-.14s.23-.23.29-.41l.16-.42-2.21-6.4h2.12Z"/>
    </g>
  </g>
</svg>