<?xml version="1.0" encoding="UTF-8"?>
<svg id="Layer_2" data-name="Layer 2" xmlns="http://www.w3.org/2000/svg" viewBox="0 0 37.51 11.56">
  <defs>
    <style>
      .cls-1 {
        fill: #ed1c24;
      }
    </style>
  </defs>
  <g id="Layer_1-2" data-name="Layer 1">
    <g>
      <path class="cls-1" d="m7.12.47v8.53h-2.05L2.06,3.69v5.31H0V.47h2.06l3.02,5.31V.47h2.05Z"/>
      <path class="cls-1" d="m8.09,5.89v-.12c0-.62.12-1.17.35-1.66s.58-.87,1.03-1.15,1.01-.42,1.67-.42,1.22.14,1.68.42.8.67,1.03,1.15.35,1.04.35,1.66v.12c0,.62-.12,1.17-.35,1.66s-.58.87-1.03,1.15-1.01.42-1.67.42-1.22-.14-1.68-.42-.8-.66-1.03-1.15-.35-1.04-.35-1.66Zm1.97-.12v.12c0,.32.03.6.1.86s.17.46.33.61.38.23.66.23c.42,0,.7-.16.85-.49s.23-.73.23-1.21v-.12c0-.31-.03-.59-.1-.85s-.17-.46-.33-.62-.38-.23-.66-.23-.49.08-.65.23-.27.36-.33.62-.1.54-.1.85Z"/>
      <path class="cls-1" d="m14.83,5.91v-.12c0-.64.09-1.21.28-1.7s.46-.87.83-1.14.82-.41,1.36-.41c.3,0,.56.06.8.18s.44.28.62.49V0h1.99v9h-1.78l-.09-.68c-.19.25-.41.44-.67.58s-.55.21-.88.21c-.54,0-.99-.14-1.35-.42s-.64-.66-.83-1.15-.28-1.03-.28-1.65Zm1.97-.12v.12c0,.47.07.87.21,1.2s.4.49.78.49c.44,0,.75-.18.93-.54v-2.43c-.18-.37-.48-.55-.92-.55-.37,0-.62.16-.77.49s-.22.74-.22,1.23Z"/>
      <path class="cls-1" d="m24.9,9.12c-.69,0-1.28-.14-1.76-.42s-.86-.66-1.12-1.12-.39-.98-.39-1.53v-.22c0-.62.11-1.17.34-1.67s.57-.89,1.02-1.17,1.02-.43,1.7-.43c.9,0,1.6.28,2.11.84s.76,1.31.76,2.27v.8h-3.92c.07.35.22.63.46.83s.54.31.92.31c.27,0,.54-.05.8-.15s.49-.27.67-.5l.9,1.07c-.2.28-.51.53-.94.76s-.95.35-1.56.35Zm-.23-5.05c-.34,0-.58.11-.73.33s-.25.49-.29.82h1.99v-.15c0-.31-.08-.56-.25-.73s-.41-.26-.72-.26Z"/>
    </g>
  </g>
</svg>