<svg width="16" height="16" viewBox="0 0 16 16" fill="none" xmlns="http://www.w3.org/2000/svg">
<path d="M3.34988 2.68765L2.14988 4.18765C1.88797 4.51503 2.12106 5 2.54031 5H8H13.4597C13.8789 5 14.112 4.51503 13.8501 4.18765L12.6501 2.68765C12.5552 2.56904 12.4116 2.5 12.2597 2.5H3.74031C3.58842 2.5 3.44476 2.56904 3.34988 2.68765Z" fill="white" stroke="white"/>
<path d="M6 2.5L6.72361 1.05279C6.893 0.714002 7.23926 0.5 7.61803 0.5H8.38197C8.76074 0.5 9.107 0.714002 9.27639 1.05279L10 2.5" stroke="white"/>
<path d="M12.9414 6.5H3.05863C2.76063 6.5 2.52878 6.75903 2.56169 7.05522L3.45058 15.0552C3.47871 15.3084 3.69275 15.5 3.94752 15.5H12.0525C12.3073 15.5 12.5213 15.3084 12.5494 15.0552L13.4383 7.05522C13.4712 6.75903 13.2394 6.5 12.9414 6.5Z" fill="white" stroke="white"/>
</svg>
